<?xml version="1.0" encoding="UTF-8" standalone="no"?>
<svg
   version="1.1"
   viewBox="0.00 0.00 1024.00 559.00"
   id="svg20"
   sodipodi:docname="nemesis_mark_edit.svg"
   inkscape:version="1.4.4 (dcaf3e7d9e, 2026-05-05)"
   xmlns:inkscape="http://www.inkscape.org/namespaces/inkscape"
   xmlns:sodipodi="http://sodipodi.sourceforge.net/DTD/sodipodi-0.dtd"
   xmlns="http://www.w3.org/2000/svg"
   xmlns:svg="http://www.w3.org/2000/svg">
  <defs
     id="defs20" />
  <sodipodi:namedview
     id="namedview20"
     pagecolor="#ffffff"
     bordercolor="#000000"
     borderopacity="0.25"
     inkscape:showpageshadow="2"
     inkscape:pageopacity="0.0"
     inkscape:pagecheckerboard="0"
     inkscape:deskcolor="#d1d1d1"
     inkscape:zoom="3.289974"
     inkscape:cx="561.40261"
     inkscape:cy="200.15356"
     inkscape:window-width="1900"
     inkscape:window-height="1146"
     inkscape:window-x="0"
     inkscape:window-y="0"
     inkscape:window-maximized="1"
     inkscape:current-layer="svg20" />
  <g
     stroke-width="2.00"
     fill="none"
     stroke-linecap="butt"
     id="g1" />
  <path
     fill="#ffffff"
     d="   M 1024.00 0.00   L 1024.00 559.00   L 0.00 559.00   L 0.00 0.00   L 1024.00 0.00   Z   M 638.15 158.98   L 654.14 158.98   A 0.62 0.62 0.0 0 0 654.70 158.63   L 682.74 100.02   A 0.29 0.29 0.0 0 0 682.42 99.61   Q 681.06 99.90 679.35 100.84   Q 667.98 107.12 623.80 130.98   A 0.15 0.15 0.0 0 0 623.75 131.20   L 627.80 136.44   A 0.28 0.27 56.6 0 0 628.16 136.52   L 668.87 113.01   A 0.07 0.07 0.0 0 1 668.96 113.12   L 524.64 267.04   A 1.02 1.01 -42.3 0 1 523.09 266.97   L 477.29 207.66   A 0.13 0.13 0.0 0 0 477.08 207.68   Q 441.93 277.95 434.58 292.09   Q 432.39 296.29 429.68 298.93   Q 406.18 321.90 387.28 340.66   A 0.22 0.22 0.0 0 1 386.91 340.44   Q 387.24 339.30 387.87 338.12   C 430.46 258.88 444.58 233.17 474.65 176.48   A 0.48 0.48 0.0 0 1 475.46 176.41   L 524.29 239.65   A 0.71 0.71 0.0 0 0 525.34 239.73   L 614.70 155.92   A 0.51 0.50 -63.0 0 0 614.42 155.05   L 580.26 151.03   A 0.36 0.36 0.0 0 1 580.16 150.34   C 583.32 148.98 586.70 148.75 590.97 147.76   Q 606.42 144.15 622.50 138.93   A 0.40 0.40 0.0 0 0 622.60 138.23   L 617.41 134.62   A 1.71 1.70 -33.5 0 0 616.12 134.36   Q 597.16 138.30 581.87 142.04   C 575.51 143.59 569.55 146.24 563.29 148.81   A 1.67 1.67 0.0 0 1 561.47 148.45   L 527.04 114.02   A 7.15 6.99 -82.4 0 1 525.83 112.40   L 512.31 87.63   A 0.20 0.20 0.0 0 0 511.96 87.63   Q 505.54 99.57 499.42 110.68   Q 497.85 113.53 496.70 114.70   Q 478.00 133.62 453.98 158.37   A 0.54 0.53 -47.8 0 1 453.25 158.41   Q 448.71 154.57 443.46 151.04   Q 431.67 143.12 419.89 135.62   Q 373.70 106.17 344.87 88.00   Q 343.32 87.02 342.12 86.53   A 0.51 0.51 0.0 0 0 341.44 87.16   Q 346.63 103.65 350.92 113.85   Q 354.34 121.99 361.07 129.82   C 366.79 136.47 375.47 141.18 383.72 146.01   Q 401.13 156.19 422.39 168.33   Q 429.57 172.43 433.02 178.77   A 0.27 0.27 0.0 0 1 432.66 179.14   L 407.15 165.44   A 0.45 0.45 0.0 0 0 406.54 166.03   C 412.40 178.50 419.53 190.92 430.24 199.36   A 0.26 0.26 0.0 0 1 430.03 199.82   C 427.91 199.44 425.64 198.11 423.88 197.39   Q 410.75 191.97 407.68 190.74   C 394.70 185.55 382.77 179.57 371.40 172.89   A 0.35 0.34 -84.0 0 0 370.90 173.30   C 377.53 192.84 391.92 204.69 408.54 215.96   A 0.48 0.48 0.0 0 1 408.66 216.64   L 399.90 229.26   A 0.96 0.94 -49.4 0 0 399.98 230.44   L 422.53 255.13   A 0.70 0.69 38.2 0 1 422.63 255.91   L 367.53 358.56   A 0.39 0.39 0.0 0 0 368.05 359.10   L 467.83 310.46   A 2.09 2.08 2.5 0 0 468.71 309.66   Q 469.29 308.73 469.69 306.92   A 0.45 0.44 30.8 0 1 470.46 306.73   L 511.65 353.75   A 0.57 0.57 0.0 0 0 512.51 353.75   L 551.68 308.95   A 0.65 0.65 0.0 0 1 552.63 308.92   C 553.70 309.99 554.69 310.69 556.29 311.45   Q 609.94 336.88 655.99 359.16   A 0.38 0.38 0.0 0 0 656.49 358.64   L 601.73 256.37   A 0.67 0.66 -39.2 0 1 601.81 255.62   L 622.77 231.65   A 0.70 0.69 44.2 0 1 623.81 231.64   L 633.59 242.34   A 0.34 0.33 -60.8 0 0 634.17 242.17   L 648.52 167.30   A 1.19 1.18 22.8 0 0 648.03 166.11   L 638.08 159.20   A 0.12 0.12 0.0 0 1 638.15 158.98   Z   M 624.08 120.88   A 0.35 0.35 0.0 0 0 624.26 120.48   L 617.14 90.80   A 0.35 0.35 0.0 0 0 616.46 90.79   L 605.04 130.01   A 0.35 0.35 0.0 0 0 605.53 130.42   L 624.08 120.88   Z   M 634.90 110.94   A 0.39 0.39 0.0 0 0 634.65 111.38   L 635.39 115.28   A 0.39 0.39 0.0 0 0 636.04 115.50   L 643.79 108.42   A 0.39 0.39 0.0 0 0 643.39 107.77   L 634.90 110.94   Z   M 575.76 138.05   A 0.33 0.33 0.0 0 0 576.12 138.20   L 594.71 133.75   A 0.33 0.33 0.0 0 0 594.81 133.14   L 562.19 113.30   A 0.33 0.33 0.0 0 0 561.73 113.75   L 575.76 138.05   Z   M 599.93 120.09   A 0.39 0.39 0.0 0 0 599.69 119.57   L 585.40 114.96   A 0.39 0.39 0.0 0 0 584.97 115.57   L 589.55 121.48   A 0.39 0.39 0.0 0 0 589.65 121.58   L 596.96 126.03   A 0.39 0.39 0.0 0 0 597.52 125.85   L 599.93 120.09   Z   M 411.41 185.99   A 0.24 0.23 86.0 0 0 411.70 185.65   L 397.83 161.62   A 4.62 4.55 88.3 0 0 395.99 159.86   Q 380.09 151.48 365.48 142.75   Q 359.26 139.04 353.62 134.29   A 0.35 0.35 0.0 0 0 353.06 134.68   Q 356.14 143.36 359.58 149.64   Q 367.10 163.34 379.16 170.31   Q 394.94 179.43 411.41 185.99   Z   M 676.29 146.58   Q 677.14 146.58 682.00 145.34   A 0.66 0.65 -7.5 0 0 682.49 144.71   L 682.49 140.45   A 0.29 0.29 0.0 0 0 682.00 140.24   L 676.01 145.85   A 0.42 0.42 0.0 0 0 676.29 146.58   Z   M 673.31 168.52   A 0.34 0.34 0.0 0 0 673.75 168.41   L 683.54 154.31   A 0.34 0.34 0.0 0 0 683.14 153.80   L 661.90 161.75   A 0.34 0.34 0.0 0 0 661.86 162.37   L 673.31 168.52   Z   M 677.12 209.95   A 0.31 0.31 0.0 0 0 677.53 209.51   L 655.15 173.28   A 0.31 0.31 0.0 0 0 654.59 173.35   L 648.25 193.00   A 0.31 0.31 0.0 0 0 648.39 193.37   L 677.12 209.95   Z   M 646.23 225.35   A 0.47 0.47 0.0 0 0 646.81 225.84   L 664.56 221.59   A 0.47 0.47 0.0 0 0 664.79 220.80   L 648.37 204.38   A 0.47 0.47 0.0 0 0 647.57 204.69   L 646.23 225.35   Z"
     id="path1" />
  <path
     fill="#010101"
     d="   M 638.08 159.20   L 648.03 166.11   A 1.19 1.18 22.8 0 1 648.52 167.30   L 634.17 242.17   A 0.34 0.33 -60.8 0 1 633.59 242.34   L 623.81 231.64   A 0.70 0.69 44.2 0 0 622.77 231.65   L 601.81 255.62   A 0.67 0.66 -39.2 0 0 601.73 256.37   L 656.49 358.64   A 0.38 0.38 0.0 0 1 655.99 359.16   Q 609.94 336.88 556.29 311.45   C 554.69 310.69 553.70 309.99 552.63 308.92   A 0.65 0.65 0.0 0 0 551.68 308.95   L 512.51 353.75   A 0.57 0.57 0.0 0 1 511.65 353.75   L 470.46 306.73   A 0.45 0.44 30.8 0 0 469.69 306.92   Q 469.29 308.73 468.71 309.66   A 2.09 2.08 2.5 0 1 467.83 310.46   L 368.05 359.10   A 0.39 0.39 0.0 0 1 367.53 358.56   L 422.63 255.91   A 0.70 0.69 38.2 0 0 422.53 255.13   L 399.98 230.44   A 0.96 0.94 -49.4 0 1 399.90 229.26   L 408.66 216.64   A 0.48 0.48 0.0 0 0 408.54 215.96   C 391.92 204.69 377.53 192.84 370.90 173.30   A 0.35 0.34 -84.0 0 1 371.40 172.89   C 382.77 179.57 394.70 185.55 407.68 190.74   Q 410.75 191.97 423.88 197.39   C 425.64 198.11 427.91 199.44 430.03 199.82   A 0.26 0.26 0.0 0 0 430.24 199.36   C 419.53 190.92 412.40 178.50 406.54 166.03   A 0.45 0.45 0.0 0 1 407.15 165.44   L 432.66 179.14   A 0.27 0.27 0.0 0 0 433.02 178.77   Q 429.57 172.43 422.39 168.33   Q 401.13 156.19 383.72 146.01   C 375.47 141.18 366.79 136.47 361.07 129.82   Q 354.34 121.99 350.92 113.85   Q 346.63 103.65 341.44 87.16   A 0.51 0.51 0.0 0 1 342.12 86.53   Q 343.32 87.02 344.87 88.00   Q 373.70 106.17 419.89 135.62   Q 431.67 143.12 443.46 151.04   Q 448.71 154.57 453.25 158.41   A 0.54 0.53 -47.8 0 0 453.98 158.37   Q 478.00 133.62 496.70 114.70   Q 497.85 113.53 499.42 110.68   Q 505.54 99.57 511.96 87.63   A 0.20 0.20 0.0 0 1 512.31 87.63   L 525.83 112.40   A 7.15 6.99 -82.4 0 0 527.04 114.02   L 561.47 148.45   A 1.67 1.67 0.0 0 0 563.29 148.81   C 569.55 146.24 575.51 143.59 581.87 142.04   Q 597.16 138.30 616.12 134.36   A 1.71 1.70 -33.5 0 1 617.41 134.62   L 622.60 138.23   A 0.40 0.40 0.0 0 1 622.50 138.93   Q 606.42 144.15 590.97 147.76   C 586.70 148.75 583.32 148.98 580.16 150.34   A 0.36 0.36 0.0 0 0 580.26 151.03   L 614.42 155.05   A 0.51 0.50 -63.0 0 1 614.70 155.92   L 525.34 239.73   A 0.71 0.71 0.0 0 1 524.29 239.65   L 475.46 176.41   A 0.48 0.48 0.0 0 0 474.65 176.48   C 444.58 233.17 430.46 258.88 387.87 338.12   Q 387.24 339.30 386.91 340.44   A 0.22 0.22 0.0 0 0 387.28 340.66   Q 406.18 321.90 429.68 298.93   Q 432.39 296.29 434.58 292.09   Q 441.93 277.95 477.08 207.68   A 0.13 0.13 0.0 0 1 477.29 207.66   L 523.09 266.97   A 1.02 1.01 -42.3 0 0 524.64 267.04   L 668.96 113.12   A 0.07 0.07 0.0 0 0 668.87 113.01   L 628.16 136.52   A 0.28 0.27 56.6 0 1 627.80 136.44   L 623.75 131.20   A 0.15 0.15 0.0 0 1 623.80 130.98   Q 667.98 107.12 679.35 100.84   Q 681.06 99.90 682.42 99.61   A 0.29 0.29 0.0 0 1 682.74 100.02   L 654.70 158.63   A 0.62 0.62 0.0 0 1 654.14 158.98   L 638.15 158.98   A 0.12 0.12 0.0 0 0 638.08 159.20   Z   M 512.25 106.08   Q 512.06 106.62 512.05 107.26   Q 511.94 133.40 512.00 181.67   A 7.07 7.05 59.1 0 1 511.15 185.07   L 503.86 198.66   A 0.64 0.64 0.0 0 0 503.92 199.36   L 525.77 227.66   A 0.47 0.46 49.8 0 0 526.45 227.72   L 559.06 197.93   A 0.63 0.63 0.0 0 0 559.19 197.18   L 512.35 106.08   A 0.06 0.05 42.4 0 0 512.25 106.08   Z   M 465.65 178.11   L 487.75 135.90   A 0.32 0.32 0.0 0 0 487.38 135.45   Q 487.27 135.48 487.00 135.75   Q 467.01 156.48 460.35 163.12   A 1.81 1.80 -32.8 0 0 459.93 165.05   L 464.79 178.05   A 0.47 0.47 0.0 0 0 465.65 178.11   Z   M 537.29 135.46   A 0.44 0.44 0.0 0 0 536.59 135.97   L 560.10 181.70   A 0.13 0.13 0.0 0 0 560.34 181.69   L 566.89 165.99   A 1.06 1.05 33.8 0 0 566.66 164.84   L 537.29 135.46   Z   M 563.48 191.54   A 0.58 0.58 0.0 0 0 564.39 192.22   L 597.64 161.84   A 0.58 0.58 0.0 0 0 597.32 160.83   L 579.60 158.75   A 0.58 0.58 0.0 0 0 579.01 159.07   L 563.48 191.54   Z   M 630.69 228.89   L 623.73 192.15   A 0.22 0.22 0.0 0 0 623.35 192.05   L 611.57 206.09   A 1.09 1.08 44.4 0 0 611.59 207.50   L 630.44 229.01   A 0.14 0.14 0.0 0 0 630.69 228.89   Z   M 603.96 216.54   A 0.31 0.31 0.0 0 0 603.49 216.55   L 589.46 233.26   A 0.31 0.31 0.0 0 0 589.42 233.60   L 597.14 248.61   A 0.31 0.31 0.0 0 0 597.65 248.68   L 614.68 229.19   A 0.31 0.31 0.0 0 0 614.68 228.79   L 603.96 216.54   Z   M 409.77 228.75   A 0.47 0.47 0.0 0 0 409.79 229.37   L 426.56 247.73   A 0.47 0.47 0.0 0 0 427.32 247.64   L 434.85 233.62   A 0.47 0.47 0.0 0 0 434.85 233.18   L 430.57 225.20   A 0.47 0.47 0.0 0 0 430.29 224.97   L 416.64 221.00   A 0.47 0.47 0.0 0 0 416.15 221.15   L 409.77 228.75   Z   M 565.65 272.79   C 572.87 273.33 582.25 274.00 589.74 277.05   Q 599.70 281.11 606.90 285.11   A 0.33 0.33 0.0 0 0 607.35 284.67   L 583.82 240.73   A 0.47 0.47 0.0 0 0 583.05 240.66   L 554.01 275.26   A 1.90 1.87 -31.2 0 0 553.61 276.84   L 559.10 302.81   A 1.34 1.33 13.4 0 0 559.58 303.58   Q 560.92 304.64 562.75 305.52   Q 600.83 323.70 637.53 341.44   A 0.28 0.28 0.0 0 0 637.90 341.05   L 615.62 299.44   A 3.60 3.52 88.8 0 0 614.11 297.96   L 565.50 273.33   A 0.29 0.29 0.0 0 1 565.65 272.79   Z   M 482.75 258.82   Q 476.91 279.63 473.17 293.57   C 472.66 295.48 472.19 296.69 473.66 298.30   Q 476.74 301.66 511.66 341.83   A 0.54 0.53 -44.7 0 0 512.47 341.83   L 549.53 299.44   A 1.39 1.37 60.7 0 0 549.85 298.28   L 547.19 284.23   A 0.42 0.42 0.0 0 0 546.45 284.04   L 524.34 310.39   A 0.50 0.50 0.0 0 1 523.56 310.37   L 483.62 258.65   A 0.50 0.50 0.0 0 0 482.75 258.82   Z"
     id="path2" />
  <path
     fill="#010101"
     d="   M 624.08 120.88   L 605.53 130.42   A 0.35 0.35 0.0 0 1 605.04 130.01   L 616.46 90.79   A 0.35 0.35 0.0 0 1 617.14 90.80   L 624.26 120.48   A 0.35 0.35 0.0 0 1 624.08 120.88   Z"
     id="path3" />
  <path
     fill="#ffffff"
     d="   M 512.25 106.08   A 0.06 0.05 42.4 0 1 512.35 106.08   L 559.19 197.18   A 0.63 0.63 0.0 0 1 559.06 197.93   L 526.45 227.72   A 0.47 0.46 49.8 0 1 525.77 227.66   L 503.92 199.36   A 0.64 0.64 0.0 0 1 503.86 198.66   L 511.15 185.07   A 7.07 7.05 59.1 0 0 512.00 181.67   Q 511.94 133.40 512.05 107.26   Q 512.06 106.62 512.25 106.08   Z"
     id="path4" />
  <path
     fill="#010101"
     d="   M 634.90 110.94   L 643.39 107.77   A 0.39 0.39 0.0 0 1 643.79 108.42   L 636.04 115.50   A 0.39 0.39 0.0 0 1 635.39 115.28   L 634.65 111.38   A 0.39 0.39 0.0 0 1 634.90 110.94   Z"
     id="path5" />
  <path
     fill="#010101"
     d="   M 575.76 138.05   L 561.73 113.75   A 0.33 0.33 0.0 0 1 562.19 113.30   L 594.81 133.14   A 0.33 0.33 0.0 0 1 594.71 133.75   L 576.12 138.20   A 0.33 0.33 0.0 0 1 575.76 138.05   Z"
     id="path6" />
  <path
     fill="#010101"
     d="   M 599.93 120.09   L 597.52 125.85   A 0.39 0.39 0.0 0 1 596.96 126.03   L 589.65 121.58   A 0.39 0.39 0.0 0 1 589.55 121.48   L 584.97 115.57   A 0.39 0.39 0.0 0 1 585.40 114.96   L 599.69 119.57   A 0.39 0.39 0.0 0 1 599.93 120.09   Z"
     id="path7" />
  <path
     fill="#010101"
     d="   M 411.41 185.99   Q 394.94 179.43 379.16 170.31   Q 367.10 163.34 359.58 149.64   Q 356.14 143.36 353.06 134.68   A 0.35 0.35 0.0 0 1 353.62 134.29   Q 359.26 139.04 365.48 142.75   Q 380.09 151.48 395.99 159.86   A 4.62 4.55 88.3 0 1 397.83 161.62   L 411.70 185.65   A 0.24 0.23 86.0 0 1 411.41 185.99   Z"
     id="path8" />
  <path
     fill="#ffffff"
     d="   M 464.79 178.05   L 459.93 165.05   A 1.81 1.80 -32.8 0 1 460.35 163.12   Q 467.01 156.48 487.00 135.75   Q 487.27 135.48 487.38 135.45   A 0.32 0.32 0.0 0 1 487.75 135.90   L 465.65 178.11   A 0.47 0.47 0.0 0 1 464.79 178.05   Z"
     id="path9" />
  <path
     fill="#ffffff"
     d="   M 537.29 135.46   L 566.66 164.84   A 1.06 1.05 33.8 0 1 566.89 165.99   L 560.34 181.69   A 0.13 0.13 0.0 0 1 560.10 181.70   L 536.59 135.97   A 0.44 0.44 0.0 0 1 537.29 135.46   Z"
     id="path10" />
  <path
     fill="#010101"
     d="   M 676.29 146.58   A 0.42 0.42 0.0 0 1 676.01 145.85   L 682.00 140.24   A 0.29 0.29 0.0 0 1 682.49 140.45   L 682.49 144.71   A 0.66 0.65 -7.5 0 1 682.00 145.34   Q 677.14 146.58 676.29 146.58   Z"
     id="path11" />
  <path
     fill="#010101"
     d="   M 673.31 168.52   L 661.86 162.37   A 0.34 0.34 0.0 0 1 661.90 161.75   L 683.14 153.80   A 0.34 0.34 0.0 0 1 683.54 154.31   L 673.75 168.41   A 0.34 0.34 0.0 0 1 673.31 168.52   Z"
     id="path12" />
  <path
     fill="#ffffff"
     d="   M 563.48 191.54   L 579.01 159.07   A 0.58 0.58 0.0 0 1 579.60 158.75   L 597.32 160.83   A 0.58 0.58 0.0 0 1 597.64 161.84   L 564.39 192.22   A 0.58 0.58 0.0 0 1 563.48 191.54   Z"
     id="path13" />
  <path
     fill="#010101"
     d="   M 677.12 209.95   L 648.39 193.37   A 0.31 0.31 0.0 0 1 648.25 193.00   L 654.59 173.35   A 0.31 0.31 0.0 0 1 655.15 173.28   L 677.53 209.51   A 0.31 0.31 0.0 0 1 677.12 209.95   Z"
     id="path14" />
  <path
     fill="#ffffff"
     d="   M 630.69 228.89   A 0.14 0.14 0.0 0 1 630.44 229.01   L 611.59 207.50   A 1.09 1.08 44.4 0 1 611.57 206.09   L 623.35 192.05   A 0.22 0.22 0.0 0 1 623.73 192.15   L 630.69 228.89   Z"
     id="path15" />
  <path
     fill="#010101"
     d="   M 646.23 225.35   L 647.57 204.69   A 0.47 0.47 0.0 0 1 648.37 204.38   L 664.79 220.80   A 0.47 0.47 0.0 0 1 664.56 221.59   L 646.81 225.84   A 0.47 0.47 0.0 0 1 646.23 225.35   Z"
     id="path16" />
  <path
     fill="#ffffff"
     d="   M 603.96 216.54   L 614.68 228.79   A 0.31 0.31 0.0 0 1 614.68 229.19   L 597.65 248.68   A 0.31 0.31 0.0 0 1 597.14 248.61   L 589.42 233.60   A 0.31 0.31 0.0 0 1 589.46 233.26   L 603.49 216.55   A 0.31 0.31 0.0 0 1 603.96 216.54   Z"
     id="path17" />
  <path
     fill="#ffffff"
     d="   M 409.77 228.75   L 416.15 221.15   A 0.47 0.47 0.0 0 1 416.64 221.00   L 430.29 224.97   A 0.47 0.47 0.0 0 1 430.57 225.20   L 434.85 233.18   A 0.47 0.47 0.0 0 1 434.85 233.62   L 427.32 247.64   A 0.47 0.47 0.0 0 1 426.56 247.73   L 409.79 229.37   A 0.47 0.47 0.0 0 1 409.77 228.75   Z"
     id="path18" />
  <path
     fill="#ffffff"
     d="   M 565.65 272.79   A 0.29 0.29 0.0 0 0 565.50 273.33   L 614.11 297.96   A 3.60 3.52 88.8 0 1 615.62 299.44   L 637.90 341.05   A 0.28 0.28 0.0 0 1 637.53 341.44   Q 600.83 323.70 562.75 305.52   Q 560.92 304.64 559.58 303.58   A 1.34 1.33 13.4 0 1 559.10 302.81   L 553.61 276.84   A 1.90 1.87 -31.2 0 1 554.01 275.26   L 583.05 240.66   A 0.47 0.47 0.0 0 1 583.82 240.73   L 607.35 284.67   A 0.33 0.33 0.0 0 1 606.90 285.11   Q 599.70 281.11 589.74 277.05   C 582.25 274.00 572.87 273.33 565.65 272.79   Z"
     id="path19" />
  <path
     fill="#ffffff"
     d="   M 483.62 258.65   L 523.56 310.37   A 0.50 0.50 0.0 0 0 524.34 310.39   L 546.45 284.04   A 0.42 0.42 0.0 0 1 547.19 284.23   L 549.85 298.28   A 1.39 1.37 60.7 0 1 549.53 299.44   L 512.47 341.83   A 0.54 0.53 -44.7 0 1 511.66 341.83   Q 476.74 301.66 473.66 298.30   C 472.19 296.69 472.66 295.48 473.17 293.57   Q 476.91 279.63 482.75 258.82   A 0.50 0.50 0.0 0 1 483.62 258.65   Z"
     id="path20" />
  <path
     sodipodi:type="star"
     style="fill:#ffffff"
     id="path22"
     inkscape:flatsided="false"
     sodipodi:sides="3"
     sodipodi:cx="285.37222"
     sodipodi:cy="49.837732"
     sodipodi:r1="441.20097"
     sodipodi:r2="220.60048"
     sodipodi:arg1="1.5429398"
     sodipodi:arg2="2.5901373"
     inkscape:rounded="0"
     inkscape:randomized="0"
     d="M 297.66096,490.86752 97.472914,165.41637 -102.71514,-160.0348 279.22784,-170.67716 661.17085,-181.31952 479.41591,154.77399 Z"
     inkscape:transform-center-x="6.144378"
     inkscape:transform-center-y="104.93626" />
  <path
     sodipodi:type="star"
     style="fill:#ffffff"
     id="path24"
     inkscape:flatsided="false"
     sodipodi:sides="3"
     sodipodi:cx="505.20441"
     sodipodi:cy="364.56643"
     sodipodi:r1="103.52214"
     sodipodi:r2="51.761068"
     sodipodi:arg1="-1.7901806"
     sodipodi:arg2="-0.74298303"
     inkscape:rounded="0"
     inkscape:randomized="0"
     d="m 482.67502,263.52555 60.64902,66.02516 60.64903,66.02515 -87.50397,19.51102 -87.50397,19.51102 26.85495,-85.53617 z"
     inkscape:transform-center-x="-11.264693"
     inkscape:transform-center-y="-15.50471" />
  <path
     sodipodi:type="star"
     style="fill:#ffffff"
     id="path25"
     inkscape:flatsided="false"
     sodipodi:sides="3"
     sodipodi:cx="598.7355"
     sodipodi:cy="291.5166"
     sodipodi:r1="98.094093"
     sodipodi:r2="49.047045"
     sodipodi:arg1="0.7410922"
     sodipodi:arg2="1.7882898"
     inkscape:rounded="0"
     inkscape:randomized="0"
     d="m 671.10259,357.73934 -82.95063,-18.33117 -82.95062,-18.33118 57.35058,-62.67176 57.35057,-62.67176 25.60005,81.00294 z"
     inkscape:transform-center-x="10.583508"
     inkscape:transform-center-y="-14.780196" />
  <path
     sodipodi:type="star"
     style="fill:#ffffff"
     id="path26"
     inkscape:flatsided="false"
     sodipodi:sides="3"
     sodipodi:cx="627.40926"
     sodipodi:cy="337.25808"
     sodipodi:r1="59.708718"
     sodipodi:r2="29.854358"
     sodipodi:arg1="0.68009803"
     sodipodi:arg2="1.7272956"
     inkscape:rounded="0"
     inkscape:randomized="0"
     d="m 673.83343,374.80706 -51.07733,-8.05947 -51.07732,-8.05946 32.51837,-40.20453 32.51836,-40.20453 18.55896,48.264 z"
     inkscape:transform-center-x="4.6531365"
     inkscape:transform-center-y="-10.715019" />
  <path
     sodipodi:type="star"
     style="fill:#ffffff"
     id="path27"
     inkscape:flatsided="true"
     sodipodi:sides="4"
     sodipodi:cx="514.76233"
     sodipodi:cy="156.34028"
     sodipodi:r1="49.457519"
     sodipodi:r2="34.971747"
     sodipodi:arg1="1.6814535"
     sodipodi:arg2="2.4668517"
     inkscape:rounded="0"
     inkscape:randomized="0"
     d="m 509.30066,205.49531 -43.69336,-54.61669 54.6167,-43.69336 43.69335,54.61669 z" />
  <path
     style="fill:#ffffff"
     d="m 685.4395,135.17632 c -0.91028,0 -2.73084,-0.91028 -2.73084,0 0,0.91027 3.54501,-0.40709 2.73084,0 -1.67847,0.83923 -3.70457,0.7065 -5.46167,1.36541 -0.21308,0.0799 0.16091,0.5218 0,0.68271 -0.79716,0.79715 -0.56827,-0.79715 -1.36542,0 -0.16092,0.16092 0.16092,0.52179 0,0.68271 -0.6377,0.6377 -2.77584,0.72771 -3.41354,1.36542 -0.3957,0.39569 -0.96972,2.33513 -1.36542,2.73083 -0.037,0.037 -2.01113,1.32842 -2.04813,1.36542 -0.22757,0.22757 -0.45514,1.82056 -0.6827,2.04813 -0.16092,0.16091 -0.5218,-0.16092 -0.68271,0 -0.32184,0.32183 0.20354,0.95832 0,1.36541 -0.41069,0.82138 -2.36451,5.09534 -2.73084,5.46167 -0.34135,0.34136 -1.02406,0.34136 -1.36542,0.68271 -0.16091,0.16092 0.10178,0.47916 0,0.68271 -0.6827,1.36542 -2.73083,2.04813 -3.41354,3.41354 -0.10177,0.20355 0.16092,0.5218 0,0.68271 -0.16091,0.16092 -0.52179,-0.16091 -0.68271,0 -0.16091,0.16092 0.16092,0.52179 0,0.68271 -0.44699,0.44699 -1.5777,0.42457 -2.04812,1.36542 -0.36109,0.72217 -0.46886,2.28255 -1.36542,2.73083 -0.20355,0.10177 -0.52179,-0.16091 -0.68271,0 -0.34204,0.34204 -0.23514,2.28327 -0.68271,2.73084 -1.41255,1.41254 0.0552,-2.15856 -1.36542,0.6827 -0.37245,0.74491 -2.01771,6.79668 -2.04812,6.82709 -0.16092,0.16092 -0.52179,-0.16091 -0.68271,0 -0.0787,0.0787 -0.73067,4.82692 -1.36542,5.46167 -0.16091,0.16092 -0.52179,-0.16092 -0.68271,0 -0.56892,0.56892 0.56893,2.84462 0,3.41354 -0.16091,0.16092 -0.52179,-0.16091 -0.6827,0 -0.71574,0.71574 -1.19455,5.2908 -1.36542,5.46167 -0.16092,0.16092 -0.47917,-0.10177 -0.68271,0 -0.76856,0.38428 -1.66792,2.65313 -2.04813,3.41355 -0.86867,1.73735 0,6.20699 0,8.1925 0,0.41662 0.26601,2.46483 0,2.73084 -0.16091,0.16091 -0.52179,-0.16092 -0.68271,0 -0.21993,0.21993 0,9.15416 0,10.24063 0,2.70327 -0.36663,17.38379 0.68271,18.43313 0.16092,0.16092 0.47917,-0.10177 0.68271,0 0.57571,0.28785 0.78971,1.07756 1.36542,1.36542 2.01075,1.00537 4.15331,2.418 6.14438,3.41354 2.66366,1.33183 12.12818,-1.46984 15.01959,-2.04813 1.11575,-0.22315 2.33408,0.35982 3.41354,0 1.09192,-0.36397 1.71446,-1.4383 2.73084,-2.04812 -0.6139,-3.49533 2.50653,-0.91191 3.41354,-1.36542 0.57571,-0.28785 0.75478,-1.16187 1.36542,-1.36542 0.65563,-0.21854 2.0756,0.32762 2.73083,0 0.86791,-0.43395 5.82087,-4.13193 6.14438,-4.77896 0.10177,-0.20354 -0.16092,-0.52179 0,-0.68271 0.16091,-0.16091 0.52179,0.16092 0.68271,0 1.10282,-1.10282 3.67415,-5.34973 4.09625,-6.82708 0.25007,-0.87526 -0.28786,-1.86727 0,-2.73084 0.20354,-0.61063 1.07756,-0.7897 1.36542,-1.36541 1.09612,-2.19224 1.76534,-4.57427 2.73083,-6.82709 0.98914,-2.308 0.47463,-4.45166 1.36542,-6.82709 1.27883,-3.41022 2.0199,-6.00326 2.73083,-9.55792 1.00371,-5.01851 -0.14218,-10.07022 0.68271,-15.01959 0.0837,-0.50194 0.58292,-0.86644 0.68271,-1.36542 0.0165,-0.0823 0.0206,-14.31633 0,-14.33688 -0.16092,-0.16091 -0.52179,0.16092 -0.68271,0 -1.49088,-1.49088 -0.14191,-1.10845 -0.68271,-2.73083 -0.20354,-0.61064 -1.07756,-0.78971 -1.36541,-1.36542 -0.20689,-0.41376 -0.39663,-1.76204 -0.68271,-2.04813 -0.16092,-0.16091 -0.5218,0.16092 -0.68271,0 -0.50886,-0.50886 -0.25093,-1.47241 -0.68271,-2.04812 -0.3862,-0.51493 -1.11187,-0.7738 -1.36542,-1.36542 -2.54243,-5.93235 0.60801,-1.48992 -1.36541,-4.77896 -1.00949,-1.68248 -2.64249,-3.66254 -3.41355,-5.46167 -0.45709,-1.06656 0.13781,-2.59303 -0.68271,-3.41354 -0.16091,-0.16092 -0.52179,0.16091 -0.6827,0 -0.32184,-0.32184 0.32183,-1.04359 0,-1.36542 -0.8202,-0.8202 -5.71934,1.86596 -6.14438,2.04813 z"
     id="path28" />
  <path
     style="fill:#ffffff"
     d="m 650.15711,108.81545 c -0.58794,1.78838 -2.84128,1.92943 -3.9514,3.03954 -0.16019,0.16019 -0.14375,0.44771 -0.30395,0.6079 -0.60791,0.60791 -1.82372,0.60791 -2.43163,1.21582 -0.1602,0.1602 -0.14376,0.44771 -0.30395,0.60791 -0.62142,0.62141 -1.47738,0.69558 -2.12768,1.21581 -0.33566,0.26853 -0.5762,0.64334 -0.91186,0.91186 -0.35382,0.28306 -0.89542,0.28752 -1.21582,0.60791 -0.16019,0.1602 -0.11545,0.48224 -0.30395,0.60791 -0.1686,0.1124 -0.40527,0 -0.60791,0 -0.20263,0.10132 -0.42666,0.16802 -0.6079,0.30395 -0.56263,0.42197 -1.19028,1.20305 -1.82373,1.51977 -0.5171,0.25855 -0.61698,-0.29488 -1.21581,0.30396 -0.066,0.066 -0.24469,0.57827 -0.30396,0.6079 -0.18124,0.0906 -0.42666,-0.0906 -0.6079,0 -0.36475,0.18238 -0.54712,0.72949 -0.91187,0.91186 -0.0906,0.0453 -0.23231,-0.0716 -0.30395,0 -0.0716,0.0716 0.0716,0.23232 0,0.30396 -0.13164,0.13164 -1.01964,0.47712 -1.21581,0.60791 -0.58439,0.38958 -0.92395,0.9179 -1.51977,1.21581 -0.18125,0.0906 -0.42667,-0.0906 -0.60791,0 -0.43885,0.21942 -0.77697,0.38849 -1.21582,0.60791 -0.18124,0.0906 -0.46462,-0.14329 -0.6079,0 -0.0717,0.0716 0.0716,0.23231 0,0.30395 -0.14329,0.14329 -0.42667,-0.0906 -0.60791,0 -0.12816,0.0641 -0.1758,0.23988 -0.30395,0.30396 -0.19101,0.0955 -2.17152,0.0438 -2.43163,0.30395 -0.0716,0.0716 0.0716,0.23231 0,0.30395 -0.14051,0.14051 -0.72835,-0.0918 -0.91187,0 -0.43884,0.21943 -0.77697,0.38849 -1.21581,0.60791 -0.24316,0.12158 -0.6687,-0.12158 -0.91186,0 -0.62937,0.31468 -1.20179,0.60089 -1.82372,0.91186 -0.32422,0.16211 -0.8916,-0.16211 -1.21582,0 -0.12816,0.0641 -0.16802,0.25864 -0.30395,0.30396 -0.28836,0.0961 -0.69694,-0.21493 -0.91187,0 -0.0716,0.0716 0.0716,0.23231 0,0.30395 -0.3727,0.37271 -1.93653,0.36036 -2.43163,0.60791 -0.35406,0.17703 -0.55779,0.43087 -0.91186,0.6079 -0.38287,0.19144 -3.19487,0.4593 -3.34349,0.60791 -0.0716,0.0716 0.0716,0.23231 0,0.30396 -0.14328,0.14328 -0.46462,-0.14329 -0.60791,0 -0.0716,0.0716 0.0717,0.23231 0,0.30395 -0.1405,0.14051 -0.72834,-0.0918 -0.91186,0 -0.6949,0.34745 -0.93705,1.07643 -1.21581,1.21581 -0.0906,0.0453 -0.23231,-0.0716 -0.30396,0 -0.0716,0.0716 0.0716,0.23232 0,0.30396 -0.0716,0.0716 -0.23231,-0.0716 -0.30395,0 -0.0716,0.0716 0.0453,0.21333 0,0.30395 -0.14688,0.29376 -0.92206,1.06894 -1.21581,1.21582 -0.0906,0.0453 -0.23232,-0.0717 -0.30396,0 -0.0716,0.0716 0.0716,0.23231 0,0.30395 -0.0716,0.0716 -0.23231,-0.0716 -0.30395,0 -0.30986,0.30986 0.33469,0.59254 -0.30396,0.91186 -0.3228,0.16141 -0.94486,0.033 -1.21581,0.30396 -0.0716,0.0716 0.0716,0.23231 0,0.30395 -0.14051,0.14051 -0.72834,-0.0918 -0.91186,0 -0.7409,0.37045 -1.38678,0.84537 -2.12768,1.21582 -0.18124,0.0906 -0.42666,-0.0906 -0.60791,0 -0.12815,0.0641 -0.16802,0.25864 -0.30395,0.30395 -0.19799,0.066 -1.34957,-0.1702 -1.51977,0 -0.0716,0.0716 0.0716,0.23231 0,0.30395 -0.0249,0.0249 -4.55705,0.45706 -4.86326,0.30396 -0.91655,-0.45828 -3.41929,-0.58896 -4.55931,-0.30396 -0.58021,0.14506 -1.04279,0.36943 -1.51976,0.60791 -0.32422,0.16211 -0.8916,-0.16211 -1.21582,0 -1.07304,0.53652 -2.27811,0.68312 -3.34349,1.21582 -0.40943,0.20471 -1.07609,-0.1479 -1.51977,0 -0.56705,0.18901 -0.75717,0.37858 -1.21581,0.6079 -0.32422,0.16211 -0.8916,-0.16211 -1.21582,0 -1.25775,0.62888 -2.34167,0.26116 -3.64745,0 -0.88588,-0.17717 -2.53424,0.40462 -3.34349,0 -0.52301,-0.2615 -0.99536,-0.3457 -1.51977,-0.6079 -0.24316,-0.12159 -0.66869,0.12158 -0.91186,0 -0.25631,-0.12816 -0.33604,-0.51729 -0.6079,-0.60791 -0.19224,-0.0641 -0.43931,0.1124 -0.60791,0 -0.16541,-0.11028 -1.03885,-1.3782 -1.21582,-1.51977 -0.35381,-0.28306 -0.8388,-0.35657 -1.21581,-0.60791 -1.76236,-1.1749 -0.22508,-0.1462 -0.60791,-0.91186 -0.25188,-0.50376 -0.87133,-0.56738 -1.21581,-0.91186 -0.60839,-0.60839 -0.75743,-1.44009 -1.21582,-2.12768 -0.54023,-0.81034 -1.33105,-1.6105 -1.82372,-2.43163 -1.60946,-2.68243 -2.43378,-7.57737 -2.12768,-10.63838 0.0514,-0.51406 0.26433,-1.00467 0.30395,-1.51977 0.0622,-0.80815 -0.0734,-1.62441 0,-2.43163 0.0823,-0.9048 0.43506,-1.87134 0.60791,-2.73558 0.0596,-0.29805 -0.0835,-0.61961 0,-0.91186 0.12448,-0.43568 0.43963,-0.79512 0.60791,-1.21582 0.0753,-0.18814 -0.0906,-0.42666 0,-0.60791 0.86778,-1.73557 0.79275,-1.16476 3.03954,-2.12767 0.58898,-0.25242 1.27425,-0.27823 1.82372,-0.60791 0.24573,-0.14744 0.36218,-0.46047 0.60791,-0.60791 0.98639,-0.59183 2.32724,-0.6351 3.34349,-1.21581 0.24881,-0.14218 0.36217,-0.46047 0.60791,-0.60791 0.78327,-0.46996 1.89399,-0.55118 2.73558,-0.91186 1.64152,-0.70351 3.20141,-1.50449 4.86326,-2.12768 1.34422,-0.50408 2.60718,-1.31964 3.9514,-1.823721 0.39115,-0.14668 0.81054,-0.202636 1.21582,-0.303954 0.70922,-0.303954 1.42256,-0.598479 2.12767,-0.911861 0.90063,-0.400278 1.74332,-1.050438 2.73559,-1.215815 1.5163,-0.252718 3.05948,-0.715874 4.5593,-1.215815 0.75468,-0.251561 1.31808,-0.749942 2.12768,-0.911862 0.16002,-0.032 1.37422,0.145544 1.51977,0 0.0716,-0.07164 0,-0.202635 0,-0.303953 0.20263,-0.101318 0.44771,-0.143756 0.6079,-0.303954 0.0716,-0.07164 -0.0906,-0.258643 0,-0.303954 0.36249,-0.181243 0.85333,0.181243 1.21582,0 0.25632,-0.128158 0.37865,-0.435965 0.60791,-0.607907 0.61729,-0.462969 1.48565,-0.483847 2.12767,-0.911862 0.18851,-0.125669 0.10132,-0.506589 0.30396,-0.607907 0.27186,-0.135933 0.61381,0.05961 0.91186,0 1.11072,-0.222144 1.75905,-1.498212 2.73558,-1.823723 0.4469,-0.148965 1.09979,-0.09396 1.51977,-0.303954 0.6414,-0.3207 1.3741,-0.723466 2.12768,-0.911861 0.19658,-0.04915 0.41567,0.06408 0.60791,0 0.13593,-0.04531 0.20263,-0.202636 0.30395,-0.303954 0.30395,-0.101318 0.59769,-0.241119 0.91186,-0.303954 0.3974,-0.07948 0.82264,0.09829 1.21582,0 4.57288,-1.14322 9.21093,0.626372 13.67792,1.519769 0.3974,0.07948 0.81841,-0.07948 1.21581,0 1.38204,0.276407 2.63288,0.886185 3.9514,1.215815 0.19659,0.04915 0.40527,0 0.60791,0 0.40527,0.101318 0.8195,0.171852 1.21581,0.303954 0.42986,0.143285 0.77624,0.498013 1.21582,0.607908 0.39317,0.09829 0.81841,-0.07948 1.21581,0 0.54176,0.108351 4.87979,1.988095 5.47117,2.43163 0.22668,0.17001 1.71801,1.110104 1.82372,1.215815 0.1602,0.160198 0.14376,0.44771 0.30396,0.607907 0.73824,0.738244 0.44633,-0.09038 0.91186,0.607908 3.25078,5.417975 -0.46879,-0.164832 1.51977,1.823723 1.15295,1.152955 0.17022,0.587657 0.91186,1.823722 0.14744,0.24573 0.40527,0.40527 0.60791,0.60791 0.30395,0.50659 0.61875,1.00683 0.91186,1.51977 0.2707,0.47372 0.32719,1.05191 0.6079,1.51977 0.29488,0.49146 0.73894,0.89789 1.21582,1.21581 0.0843,0.0562 0.23231,-0.0716 0.30395,0 0.15733,0.15733 0.14663,1.05849 0.30396,1.21582 0.0716,0.0716 0.23231,-0.0717 0.30395,0 0.14329,0.14328 -0.14328,0.46462 0,0.6079 0.0716,0.0717 0.20264,0 0.30395,0 1.30547,0 0.55555,-0.12218 1.51977,2.12768 z"
     id="path29" />
  <path
     style="fill:#ffffff"
     d="m 564.7461,191.49087 c -0.30395,0.40528 -1.31713,0.91187 -0.91186,1.21582 0.40527,0.30395 1.30744,-1.53228 0.91186,-1.21582 -0.81054,0.81055 -1.62108,1.62109 -2.43163,2.43164 -0.10131,0 -0.21333,-0.0453 -0.30395,0 -0.76657,0.38328 -0.83944,0.87565 -1.51977,1.21581 -0.22362,0.11181 -1.11817,0.20631 -1.21581,0.30395 -0.0716,0.0717 0.0716,0.23232 0,0.30396 -0.0716,0.0716 -0.23231,-0.0716 -0.30396,0 -0.0165,0.0165 -0.59143,0.89539 -0.60791,0.91186 -0.15197,0.15198 -0.45593,0.15198 -0.6079,0.30395 -0.0716,0.0717 0.0716,0.23231 0,0.30396 -0.0716,0.0716 -0.23231,-0.0717 -0.30396,0 -0.14328,0.14328 0.18125,0.51728 0,0.6079 -0.18124,0.0906 -0.41567,-0.0641 -0.6079,0 -0.13594,0.0453 -0.16803,0.25865 -0.30396,0.30396 -0.19223,0.0641 -0.42666,-0.0906 -0.60791,0 -0.0906,0.0453 0.0906,0.25864 0,0.30395 -0.18124,0.0906 -0.41567,-0.0641 -0.6079,0 -0.13594,0.0453 -0.1758,0.23988 -0.30396,0.30396 -0.16706,0.0835 -4.67973,0.0918 -4.86326,0 -0.60583,-0.30292 -1.21788,-0.30499 -1.82372,-0.60791 -0.34451,-0.17226 -1.54804,0.27568 -1.82372,0 -0.0716,-0.0716 0.0453,-0.21333 0,-0.30396 -0.33603,-0.67205 -0.18865,-0.0943 -0.60791,-0.30395 -0.36474,-0.18237 -0.54712,-0.72949 -0.91186,-0.91186 -0.64734,-0.32367 -0.981,-0.37309 -1.51977,-0.91186 -0.0716,-0.0716 0.0716,-0.23231 0,-0.30396 -0.62889,-0.62889 0.0246,0.96103 -0.60791,-0.30395 -0.0906,-0.18124 0.14329,-0.46462 0,-0.60791 -0.62889,-0.62889 0.0246,0.96103 -0.6079,-0.30395 -0.57043,-1.14085 -1.4902,-2.61731 -1.82373,-3.9514 -0.22073,-0.88294 -0.30788,-1.8355 -0.60791,-2.73558 -0.27928,-0.83786 -1.00201,-1.57643 -1.21581,-2.43163 -0.18308,-0.73234 -0.0673,-1.72163 -0.30395,-2.43163 -0.27357,-0.8207 -0.45751,-1.52921 -0.60791,-2.43163 -0.082,-0.49185 -0.20396,-3.54348 0,-3.9514 0.21936,-0.43872 0.60791,-1.0118 0.60791,-1.51977 0,-1.2975 0.83484,-1.89663 1.21581,-3.03954 0.18925,-0.56774 0.0983,-1.01011 0.60791,-1.51977 0.0716,-0.0716 0.23231,0.0716 0.30395,0 0.0716,-0.0716 -0.0453,-0.21333 0,-0.30395 0.19224,-0.38448 0.67342,-0.5542 0.91186,-0.91186 0.11241,-0.16861 -0.14328,-0.46463 0,-0.60791 0.0716,-0.0716 0.23231,0.0716 0.30396,0 0.0976,-0.0976 0.19214,-0.9922 0.30395,-1.21582 0.25611,-0.51221 0.70268,-0.58826 0.91186,-1.21581 0.26168,-0.78502 0.0921,-1.58434 0.30396,-2.43163 0.24912,-0.9965 0.8172,-1.63441 1.21581,-2.43163 0.17054,-0.34108 0.12791,-0.86373 0.30396,-1.21582 0.19958,-0.39916 0.89429,-0.44714 1.21581,-0.6079 0.55958,-0.2798 0.0483,-0.63207 0.60791,-0.91187 0.18778,-0.0939 1.10315,-0.19128 1.21581,-0.30395 0.0716,-0.0716 -0.0716,-0.23231 0,-0.30395 0.14329,-0.14329 0.46463,0.14328 0.60791,0 0.0716,-0.0717 -0.0716,-0.23231 0,-0.30396 0.14329,-0.14328 0.46462,0.14329 0.60791,0 0.0716,-0.0716 -0.0716,-0.23231 0,-0.30395 0.31368,-0.31369 0.88334,-0.44167 1.21581,-0.60791 0.36475,-0.18237 0.54712,-0.72949 0.91186,-0.91186 0.29201,-0.146 1.41809,-0.20227 1.51977,-0.30395 0.0716,-0.0717 -0.0716,-0.23231 0,-0.30396 0.14329,-0.14328 0.51729,-0.18124 0.60791,0 0.13593,0.27187 -0.30395,0.91186 0,0.91186 0.0358,0 -0.0447,-0.86716 0,-0.91186 0.0716,-0.0716 0.23231,0.0716 0.30395,0 0.0716,-0.0716 -0.0716,-0.23231 0,-0.30395 0.075,-0.075 1.74874,-0.075 1.82373,0 0.0716,0.0716 -0.0716,0.23231 0,0.30395 0.095,0.095 2.24514,0.11747 2.43163,0.30396 0.0716,0.0716 -0.0716,0.23231 0,0.30395 0.20263,0.20264 1.01318,-0.20264 1.21581,0 0.0716,0.0716 -0.0716,0.23231 0,0.30395 0.18649,0.18649 2.33663,0.20896 2.43163,0.30396 0.0716,0.0716 -0.0716,0.23231 0,0.30395 0.0716,0.0716 0.21333,-0.0453 0.30396,0 0.44329,0.22165 0.48624,0.48624 0.6079,0.60791 0.18356,0.18355 1.53548,0 1.82373,0 0.238,0 1.3681,0.15166 1.51977,0 0.0716,-0.0716 -0.0716,-0.23231 0,-0.30395 0.1619,-0.16191 4.79959,0.27211 4.86326,0.30395 0.12815,0.0641 0.17579,0.23987 0.30395,0.30395 0.24316,0.12158 0.6687,-0.12158 0.91186,0 0.12816,0.0641 0.1758,0.23988 0.30395,0.30396 0.32711,0.16355 2.94789,0.2123 3.03954,0.30395 0.0716,0.0716 -0.0716,0.23231 0,0.30395 0.19927,0.19927 1.06354,0.15168 1.21582,0.30396 0.12166,0.12166 0.16461,0.38626 0.6079,0.60791 0.39768,0.19883 2.45022,0.0186 2.73559,0.30395 0.0616,0.0616 0.0616,1.45816 0,1.51977 -0.0716,0.0716 -0.23231,-0.0716 -0.30395,0 -0.14329,0.14328 0,0.40527 0,0.60791 0,1.69216 0.0223,3.23185 -0.30396,4.86326 -0.11555,0.57775 0.25769,1.6123 0,2.12767 -0.0641,0.12816 -0.23987,0.1758 -0.30395,0.30396 -0.12158,0.24316 0.12158,0.66869 0,0.91186 -0.22165,0.44329 -0.48625,0.48624 -0.60791,0.6079 -0.12789,0.12789 -0.53856,2.78355 -0.91186,3.3435 -0.27694,0.4154 -0.56656,0.43525 -0.91186,0.6079 -0.41888,0.20944 -0.4089,0.71286 -0.60791,0.91187 -0.20948,0.20947 -0.77082,0.0219 -0.91186,0.30395 -0.0906,0.18124 0.0641,0.41567 0,0.60791 -0.0906,0.27186 -0.44895,0.36946 -0.60791,0.6079 -0.13078,0.19618 -0.47627,1.08418 -0.60791,1.21582 -0.0716,0.0716 -0.23231,-0.0716 -0.30395,0 -0.24179,0.24179 -0.38952,1.30138 -0.60791,1.51977 -0.0716,0.0716 -0.23231,-0.0716 -0.30395,0 -0.14329,0.14328 0.14328,0.46462 0,0.60791 -0.18065,0.18065 -0.35748,0.17874 -0.60791,0.30395 -0.48245,0.24123 -0.71128,1.01523 -0.91186,1.21581 -0.62889,0.6289 0.0246,-0.96102 -0.60791,0.30396 -0.0453,0.0906 0.0716,0.23231 0,0.30395 -0.0716,0.0716 -0.23231,-0.0716 -0.30395,0 -0.14329,0.14329 0.0906,0.42667 0,0.60791 -0.40387,0.80774 -1.10614,1.60438 -1.51977,2.43163 -0.0906,0.18124 0.14328,0.46462 0,0.60791 -0.0716,0.0716 -0.23231,-0.0717 -0.30395,0 -0.36148,0.36147 -0.71656,1.12916 -0.91187,1.51977 -0.24316,0.48632 -0.97265,0.72948 -1.21581,1.21581 -0.70608,1.41217 0.92603,-1.01264 -1.21582,2.73558 z"
     id="path30" />
  <path
     style="fill:#ffffff"
     d="m 562.92238,148.32944 c -0.40527,0.10132 -1.31713,-0.10132 -1.21581,0.30395 0.10131,0.40528 1.60368,-0.4591 1.21581,-0.30395 -0.89244,0.35698 -1.84314,0.55489 -2.73558,0.91186 -0.13304,0.0532 -0.16802,0.25864 -0.30396,0.30395 -0.19223,0.0641 -0.42666,-0.0906 -0.6079,0 -0.0906,0.0453 0.0716,0.23232 0,0.30396 -0.14329,0.14328 -0.42667,-0.0906 -0.60791,0 -0.35407,0.17703 -0.5578,0.43087 -0.91186,0.60791 -0.31888,0.15943 -1.28872,0.0729 -1.51977,0.30395 -0.0716,0.0716 0.0716,0.23231 0,0.30395 -0.14329,0.14329 -0.46462,-0.14328 -0.60791,0 -0.62889,0.62889 0.96103,-0.0246 -0.30395,0.60791 -0.22362,0.11181 -1.11817,0.20631 -1.21582,0.30395 -0.12166,0.12167 -0.16461,0.38627 -0.60791,0.60791 -0.24178,0.12089 -1.6509,0.13114 -1.82372,0.30396 -0.0716,0.0716 0.0716,0.23231 0,0.30395 -0.738,0.738 -2.6555,0.84384 -3.64744,1.21582 -4.35043,1.6314 -8.88196,2.82839 -13.37397,3.95139 -1.24332,0.31083 -2.40413,0.90499 -3.64744,1.21582 -5.04251,1.26063 -10.05055,2.60818 -15.19769,3.34349 -2.58823,0.36975 -5.79486,1.25134 -8.51071,0.91186 -0.45545,-0.0569 -1.87866,-0.71264 -2.12767,-0.91186 -0.17691,-0.14153 -0.12272,-0.47197 -0.30396,-0.60791 -0.4104,-0.3078 -2.78595,-1.28082 -3.34349,-1.51977 -0.67797,-0.29055 -1.45618,-0.30268 -2.12768,-0.6079 -1.07565,-0.48894 -1.95351,-1.35829 -3.03953,-1.82373 -0.38397,-0.16455 -0.85312,-0.0967 -1.21582,-0.30395 -0.37322,-0.21327 -0.58549,-0.63211 -0.91186,-0.91186 -3.03152,-2.59845 -4.63067,-4.56422 -6.99094,-7.59885 -0.70922,-0.91186 -1.40602,-1.83352 -2.12767,-2.73558 -0.44755,-0.55943 -1.08992,-0.94663 -1.51977,-1.51977 -0.13593,-0.18124 -0.14376,-0.44771 -0.30396,-0.60791 -1.10882,-1.10882 -0.931,-0.0838 -2.12767,-1.51976 -0.2263,-0.27156 -0.81309,-1.72496 -1.21582,-2.12768 -0.58106,-0.58107 -0.80588,0.0447 -1.21581,-0.91186 -0.20351,-0.47485 -0.10045,-1.04492 -0.30396,-1.51977 -0.11288,-0.2634 -0.47975,-0.35159 -0.6079,-0.60791 -0.64568,-1.29136 -0.10896,-0.95766 -0.30396,-2.12767 -0.28788,-1.72729 -0.41944,-0.0546 -0.60791,-2.12768 -0.0642,-0.70631 0.0589,-1.4209 0,-2.12768 -0.0429,-0.51484 -0.23987,-1.00713 -0.30395,-1.51977 -0.14764,-1.18113 0.16148,-2.20366 0.30395,-3.34349 0.13824,-1.10589 -0.1009,-2.23357 0,-3.34349 0.0378,-0.41603 0.25214,-0.8013 0.30396,-1.21581 0.17462,-1.39695 -0.1555,-2.8559 0,-4.25536 0.0461,-0.41519 0.27191,-0.7993 0.30395,-1.21581 0.16821,-2.18672 -0.27266,-4.50568 0,-6.68699 0.0397,-0.31792 0.25865,-0.59468 0.30396,-0.91186 0.33117,-2.3182 0.58365,-4.6935 0.91186,-6.99093 0.19102,-1.33719 0.99345,-2.617207 1.21581,-3.951402 0.05,-0.299819 -0.0596,-0.613811 0,-0.911862 0.0316,-0.15773 1.7326,-3.46519 1.82372,-3.647445 1.21582,-2.43163 -0.10131,0.50659 1.51977,-1.519769 0.20015,-0.250187 0.12623,-0.645276 0.30396,-0.911861 0.87623,-1.314352 2.63027,-2.022367 3.64744,-3.039538 0.1602,-0.160197 0.12271,-0.471975 0.30396,-0.607907 0.25631,-0.192238 0.63712,-0.139112 0.91186,-0.303954 0.24573,-0.147439 0.37865,-0.435965 0.60791,-0.607908 0.80038,-0.600288 1.8649,-0.780475 2.73558,-1.215815 1.45903,-0.729515 2.94382,-1.500626 4.55931,-1.823722 0.29805,-0.05961 0.61381,0.05961 0.91186,0 1.74684,-0.349369 3.87774,-1.706037 5.77512,-2.127677 0.78351,-0.646997 1.86833,-0.159411 2.73558,-0.303953 0.63207,-0.105346 1.18937,-0.517287 1.82373,-0.607908 2.39964,-0.342806 4.87835,-0.609794 7.29489,-0.911861 3.94548,-0.493186 7.81752,0.586588 11.55024,1.519769 5.18373,1.295933 -1.55936,-0.41187 2.73558,0.303953 0.72935,0.121559 2.98064,0.919457 3.64745,1.215815 0.53986,0.239939 0.9666,0.704425 1.51977,0.911862 0.2846,0.106725 0.62964,-0.112886 0.91186,0 0.37994,0.151977 0.56991,0.683896 0.91186,0.911861 0.14275,0.09517 0.76911,0.208784 0.91186,0.303954 0.56359,0.375727 0.70742,0.657665 1.21582,0.911861 0.54913,0.274567 2.09219,2.968577 2.43163,3.647445 0.49606,0.992138 1.47548,1.994834 1.82372,3.039538 0.29539,0.88617 0.3332,1.842786 0.60791,2.735584 0.68841,2.237338 0.42337,0.278655 1.21581,2.127676 0.15424,0.616968 0.34628,1.517198 0.60791,2.127677 0.59933,1.398447 1.05713,1.810297 1.82372,3.343487 0.14329,0.28657 0.14499,0.63368 0.30396,0.91187 0.50267,0.87968 1.41223,1.50577 1.82372,2.43163 0.20982,0.47209 0.0941,1.04767 0.30395,1.51976 0.20575,0.46293 0.66052,0.77598 0.91186,1.21582 1.42565,2.49487 2.65681,5.20103 4.25536,7.59884 0.44489,0.66734 1.30076,1.90868 1.82372,2.43163 0.62889,0.6289 -0.0246,-0.96103 0.60791,0.30396 0.27883,0.55767 0.62735,1.25472 0.91186,1.82372 0.0906,0.18124 -0.0492,0.41132 0,0.60791 0.85051,3.40203 0.30395,7.7057 0.30395,11.24629 0,0.68689 -0.2153,1.78572 0,2.43163 0.40076,1.20228 1.00171,2.30738 1.51977,3.34349 0.0906,0.18124 -0.14329,0.46462 0,0.60791 0.0716,0.0716 0.23231,-0.0716 0.30395,0 0.2533,0.25329 -0.25329,1.26647 0,1.51977 0.0716,0.0716 0.23231,-0.0717 0.30396,0 0.14328,0.14328 -0.0906,0.42666 0,0.6079 0.0641,0.12816 0.23987,0.1758 0.30395,0.30396 0.12654,0.25307 -0.1928,1.02301 0,1.21581 0.0716,0.0716 0.23231,-0.0716 0.30396,0 0.1405,0.14051 -0.0918,0.72834 0,0.91186 0.0641,0.12816 0.23987,0.1758 0.30395,0.30396 0.15944,0.31889 -0.24261,1.27716 0,1.51977 0.0716,0.0716 0.23231,-0.0717 0.30395,0 0.14329,0.14328 -0.10739,0.43607 0,0.6079 0.46193,0.73909 1.01318,1.41845 1.51977,2.12768 z"
     id="path31" />
</svg>
